<?xml version="1.0" encoding="UTF-8"?>
<svg width="40px" height="40px" viewBox="0 0 40 40" version="1.1" xmlns="http://www.w3.org/2000/svg" xmlns:xlink="http://www.w3.org/1999/xlink">
    <title>discord</title>
    <g id="页面-1" stroke="none" stroke-width="1" fill="none" fill-rule="evenodd">
        <g id="官网1920" transform="translate(-1499.000000, -5439.000000)">
            <g id="编组-2备份" transform="translate(259.000000, 5306.000000)">
                <g id="编组-9" transform="translate(730.000000, 80.000000)">
                    <g id="编组-33" transform="translate(330.000000, 0.000000)">
                        <g id="discord" transform="translate(180.000000, 53.000000)">
                            <circle id="椭圆形备份-10" fill-opacity="0.1" fill="#202842" cx="20" cy="20" r="20"></circle>
                            <path d="M23.6875,18.75 C22.5625,18.75 21.625,19.75 21.625,21 C21.625,22.25 22.5625,23.25 23.6875,23.25 C24.8125,23.25 25.75,22.25 25.75,21 C25.75,19.75 24.8125,18.75 23.6875,18.75 L23.6875,18.75 Z M16.375,18.75 C15.25,18.75 14.3125,19.75 14.3125,21 C14.3125,22.25 15.25,23.25 16.375,23.25 C17.5,23.25 18.4375,22.25 18.4375,21 C18.4375,19.75 17.5,18.75 16.375,18.75 L16.375,18.75 Z M25.6875,28.125 C25.6875,28.125 24.9375,27.25 24.375,26.5 C27,25.75 28,24.125 28,24.125 C27.1875,24.6875 26.375,25.0625 25.6875,25.3125 C24.6875,25.75 23.75,26 22.8125,26.1875 C20.875,26.5625 19.125,26.4375 17.625,26.1875 C16.5,25.9375 15.5,25.625 14.6875,25.3125 C14.25,25.125 13.75,24.9375 13.25,24.625 C13.1875,24.5625 13.125,24.5625 13.0625,24.5 C13,24.5 13,24.4375 13,24.4375 C12.625,24.25 12.4375,24.125 12.4375,24.125 C12.4375,24.125 13.375,25.75 15.9375,26.5 C15.3125,27.25 14.625,28.1875 14.625,28.1875 C10.1875,28.0625 8.5,25.125 8.5,25.125 C8.5,18.6875 11.375,13.4375 11.375,13.4375 C14.25,11.25 17,11.3125 17,11.3125 L17.1875,11.5625 C13.5625,12.625 11.875,14.1875 11.875,14.1875 C11.875,14.1875 12.3125,13.9375 13.0625,13.625 C15.1875,12.6875 16.875,12.4375 17.625,12.375 C17.75,12.375 17.875,12.3125 17.9375,12.3125 C19.1875,12.125 20.5625,12.125 22,12.25 C23.875,12.5 25.9375,13 28,14.1875 C28,14.1875 26.4375,12.6875 23,11.625 L23.25,11.3125 C23.25,11.3125 26,11.25 28.875,13.4375 C28.875,13.4375 31.75,18.6875 31.75,25.125 C31.8125,25.0625 30.125,28 25.6875,28.125 L25.6875,28.125 Z" id="形状" fill="#222840" fill-rule="nonzero" opacity="0.5"></path>
                        </g>
                    </g>
                </g>
            </g>
        </g>
    </g>
</svg>