<?xml version="1.0" encoding="UTF-8"?>
<svg width="40px" height="40px" viewBox="0 0 40 40" version="1.1" xmlns="http://www.w3.org/2000/svg" xmlns:xlink="http://www.w3.org/1999/xlink">
    <title>github</title>
    <g id="页面-1" stroke="none" stroke-width="1" fill="none" fill-rule="evenodd">
        <g id="官网1920" transform="translate(-1379.000000, -5439.000000)">
            <g id="编组-2备份" transform="translate(259.000000, 5306.000000)">
                <g id="编组-9" transform="translate(730.000000, 80.000000)">
                    <g id="编组-33" transform="translate(330.000000, 0.000000)">
                        <g id="github" transform="translate(60.000000, 53.000000)">
                            <circle id="椭圆形" fill-opacity="0.1" fill="#202842" cx="20" cy="20" r="20"></circle>
                            <path d="M27.777048,14.2386407 C28.5315509,12.8352319 27.6692558,11 27.6692558,11 C25.7291024,11 24.3278888,12.2954478 24.3278888,12.2954478 C23.5733859,11.8636248 21.0943139,11.8636248 21.0943139,11.8636248 C21.0943139,11.8636248 18.615242,11.8636248 17.8607391,12.2954478 C17.8607391,12.2954478 16.4595254,11 14.5193721,11 C14.5193721,11 13.657077,12.8352319 14.4115799,14.2386407 C14.4115799,14.2386407 12.6870109,15.8579717 13.3337216,19.3125133 C13.9414374,22.5587276 16.7828596,23.4148 18.6152208,23.4148 C18.6152208,23.4148 17.8607179,24.0625239 17.9685101,25.1420708 C17.9685101,25.1420708 16.8906518,25.7897947 15.8127935,25.3579717 C14.7349352,24.9261487 14.1959955,23.8466018 14.1959955,23.8466018 C14.1959955,23.8466018 13.1181372,22.4431929 12.0402789,22.9829558 C12.0402789,22.9829558 11.7169236,23.3068177 12.902574,23.8466018 C12.902574,23.8466018 13.7648691,25.1420496 14.0882245,25.8977345 C14.4115799,26.6534195 16.1361489,27.3011434 17.8607391,26.8693204 L17.8607391,29.3522761 C17.8607391,29.3522761 17.8607391,29.568177 17.4295915,29.6761381 C16.998444,29.7840991 16.998444,30 17.2140284,30 L24.9745995,30 C25.1901627,30 25.1901627,29.7840991 24.7590363,29.6761381 C24.3278888,29.568177 24.3278888,29.3522761 24.3278888,29.3522761 L24.3278888,26.8693204 C24.3278888,26.8693204 24.3373569,25.5745939 24.3278888,25.1420496 C24.3041868,24.0573899 23.5733859,23.4147788 23.5733859,23.4147788 C25.4057471,23.4147788 28.2471693,22.5587064 28.8548851,19.312492 C29.501617,15.8579717 27.777048,14.2386407 27.777048,14.2386407 Z" id="路径" fill="#222840" fill-rule="nonzero" opacity="0.5"></path>
                        </g>
                    </g>
                </g>
            </g>
        </g>
    </g>
</svg>