<?xml version="1.0" encoding="UTF-8"?>
<svg width="40px" height="40px" viewBox="0 0 40 40" version="1.1" xmlns="http://www.w3.org/2000/svg" xmlns:xlink="http://www.w3.org/1999/xlink">
    <title>telegram</title>
    <g id="页面-1" stroke="none" stroke-width="1" fill="none" fill-rule="evenodd">
        <g id="官网1920" transform="translate(-1439.000000, -5439.000000)">
            <g id="编组-2备份" transform="translate(259.000000, 5306.000000)">
                <g id="编组-9" transform="translate(730.000000, 80.000000)">
                    <g id="编组-33" transform="translate(330.000000, 0.000000)">
                        <g id="telegram" transform="translate(120.000000, 53.000000)">
                            <rect id="矩形" fill="#000000" fill-rule="nonzero" opacity="0" x="0" y="0" width="40" height="40"></rect>
                            <path d="M40,20 C40,31.0485714 31.0485714,40 20,40 C8.95142855,40 0,31.0485714 0,20 C0,8.95142855 8.95142855,0 20,0 C31.0485714,0 40,8.95142855 40,20 Z" id="路径" fill-opacity="0.1" fill="#202842"></path>
                            <path d="M25.54,28.1742857 L28.8214286,12.7057143 C29.1114286,11.3442857 28.33,10.8085714 27.4371429,11.1428571 L8.15142855,18.5757143 C6.8342857,19.0885714 6.85714285,19.8257143 7.92857145,20.16 L12.8614286,21.7 L24.3128571,14.49 C24.8485714,14.1328571 25.34,14.3342857 24.9385714,14.6914286 L15.6757143,23.0614286 L15.3185714,28.1514286 C15.8314286,28.1514286 16.0557143,27.9285714 16.3228571,27.66 L18.7328571,25.3385714 L23.7328571,29.0214286 C24.6485714,29.5342857 25.2957143,29.2671429 25.5414286,28.1728571 L25.54,28.1742857 Z" id="路径" fill="#222840" fill-rule="nonzero" opacity="0.5"></path>
                        </g>
                    </g>
                </g>
            </g>
        </g>
    </g>
</svg>