<?xml version="1.0" encoding="UTF-8"?>
<svg width="40px" height="40px" viewBox="0 0 40 40" version="1.1" xmlns="http://www.w3.org/2000/svg" xmlns:xlink="http://www.w3.org/1999/xlink">
    <title>推特</title>
    <g id="页面-1" stroke="none" stroke-width="1" fill="none" fill-rule="evenodd">
        <g id="官网1920" transform="translate(-1319.000000, -5439.000000)">
            <g id="编组-2备份" transform="translate(259.000000, 5306.000000)">
                <g id="编组-9" transform="translate(730.000000, 80.000000)">
                    <g id="编组-33" transform="translate(330.000000, 0.000000)">
                        <g id="推特" transform="translate(0.000000, 53.000000)">
                            <path d="M20,0 C8.92307691,0 0,8.92307691 0,20 C0,31.0769231 8.92307691,40 20,40 C31.0769231,40 40,31.0769231 40,20 C40,8.92307691 31.0769231,0 20,0 Z" id="路径" fill-opacity="0.1" fill="#202842"></path>
                            <path d="M29.6923077,14.3076923 C29.5384615,14.4615385 29.5384615,14.6153846 29.3846154,14.6153846 C29.0769231,14.9230769 28.7692308,15.0769231 28.4615385,15.2307692 C28.3076923,15.2307692 28.3076923,15.3846154 28.3076923,15.5384615 C28.4615385,17.2307692 28.1538461,18.9230769 27.5384615,20.6153846 C26.4615385,23.5384615 24.1538461,25.8461538 21.3846154,27.2307692 C19.0769231,28.6153846 16.3076923,29.076923 13.8461538,28.4615385 C12.6153846,28.3076923 11.5384615,27.8461539 10.6153846,27.2307692 L10.4615385,27.0769231 C10.4615385,26.9230769 10.6153846,26.7692308 10.7692308,26.7692308 C11.5384616,26.7692308 12.3076923,26.6153846 13.0769231,26.3076923 C13.8461539,26 14.6153846,25.5384615 15.2307692,25.0769231 L15.3846154,24.9230769 C15.3846154,24.7692307 15.3846154,24.6153846 15.2307692,24.6153846 C14.6153846,24.4615384 14.1538461,24.1538461 13.6923077,23.8461538 C13.0769231,23.5384615 12.6153846,22.9230769 12.3076923,22.3076923 L12.3076923,22.1538462 C12.3076923,22 12.4615385,21.8461539 12.6153846,21.8461538 L13.0769231,21.8461538 C13.2307693,21.8461538 13.2307693,21.8461538 13.2307692,21.6923077 C13.3846154,21.5384615 13.2307692,21.3846154 13.0769231,21.2307692 C12.4615385,20.9230769 12,20.4615384 11.5384615,20 C10.9230769,19.3846154 10.6153846,18.6153846 10.6153846,17.8461538 L10.6153846,17.6923077 C10.6153846,17.5384615 10.9230769,17.5384615 10.9230769,17.5384615 C11.0769231,17.5384615 11.2307692,17.6923077 11.3846154,17.6923077 L11.6923077,17.6923077 C11.8461539,17.6923077 11.8461539,17.6923077 12,17.5384615 C12.1538461,17.3846154 12.1538462,17.2307692 12,17.0769231 C11.3846154,16.4615385 10.9230769,15.6923077 10.7692308,14.7692308 C10.6153846,14 10.7692308,13.0769231 11.0769231,12.3076923 L11.0769231,12.1538462 C10.7692308,12.3076923 10.9230769,12.3076923 11.0769231,12.4615385 C12.1538462,13.5384616 13.2307693,14.4615385 14.6153846,15.2307692 C16.1538461,16 17.8461538,16.4615384 19.5384615,16.4615385 C19.6923077,16.4615385 19.8461538,16.3076923 19.8461538,16.1538462 C19.8461538,15.2307693 20.1538461,12.1538462 22.9230769,11.3846154 C24.3076923,10.9230769 26,11.2307692 27.0769231,12.4615385 C27.0769231,12.4615385 27.2307693,12.6153846 27.3846154,12.6153846 C27.6923077,12.6153846 28,12.4615384 28.4615385,12.4615385 C28.7692308,12.3076923 29.0769231,12.3076923 29.3846154,12.1538462 L29.6923077,12.1538462 C29.8461539,12.1538462 29.8461539,12.4615385 29.8461538,12.6153846 C29.6923077,12.9230769 29.3846154,13.2307692 29.0769231,13.5384615 L28.9230769,13.6923077 C28.7692307,13.6923077 28.7692307,13.8461539 28.7692308,14 C28.7692308,14.1538461 28.923077,14.3076923 29.0769231,14.3076923 C29.2307692,14.3076923 29.3846154,14.3076923 29.6923077,14.1538462 L30,14.1538462 C29.8461538,14 29.8461538,14.3076923 29.6923077,14.3076923 L29.6923077,14.3076923 Z" id="路径" fill="#222840" fill-rule="nonzero" opacity="0.5"></path>
                        </g>
                    </g>
                </g>
            </g>
        </g>
    </g>
</svg>