<?xml version="1.0" encoding="UTF-8"?>
<svg width="40px" height="40px" viewBox="0 0 40 40" version="1.1" xmlns="http://www.w3.org/2000/svg" xmlns:xlink="http://www.w3.org/1999/xlink">
    <title>youtube</title>
    <g id="页面-1" stroke="none" stroke-width="1" fill="none" fill-rule="evenodd">
        <g id="官网1920" transform="translate(-1559.000000, -5439.000000)">
            <g id="编组-2备份" transform="translate(259.000000, 5306.000000)">
                <g id="编组-9" transform="translate(730.000000, 80.000000)">
                    <g id="编组-33" transform="translate(330.000000, 0.000000)">
                        <g id="youtube" transform="translate(240.000000, 53.000000)">
                            <circle id="椭圆形备份-11" fill-opacity="0.1" fill="#202842" cx="20" cy="20" r="20"></circle>
                            <path d="M29.59375,15.1875 C29.375,14.3125 28.6875,13.65625 27.8125,13.40625 C26.25,13 20,13 20,13 C20,13 13.75,13 12.1875,13.40625 C11.3125,13.625 10.65625,14.3125 10.40625,15.1875 C10,16.75 10,20 10,20 C10,20 10,23.25 10.40625,24.8125 C10.625,25.6875 11.3125,26.34375 12.1875,26.59375 C13.75,27 20,27 20,27 C20,27 26.25,27 27.8125,26.59375 C28.6875,26.375 29.34375,25.6875 29.59375,24.8125 C30,23.25 30,20 30,20 C30,20 30,16.75 29.59375,15.1875 Z M18,23 L18,17 L23.1875,20 L18,23 Z" id="形状" fill="#222840" fill-rule="nonzero" opacity="0.5"></path>
                        </g>
                    </g>
                </g>
            </g>
        </g>
    </g>
</svg>